<svg width="512" height="512" viewBox="0 0 512 512" fill="none" xmlns="http://www.w3.org/2000/svg">
<g clip-path="url(#clip0_16_44)">
<mask id="mask0_16_44" style="mask-type:alpha" maskUnits="userSpaceOnUse" x="0" y="0" width="512" height="512">
<rect width="512" height="512" rx="256" fill="#C4C4C4"/>
</mask>
<g mask="url(#mask0_16_44)">
<rect x="-58" y="-43" width="656" height="635" fill="#009688"/>
</g>
<path fill-rule="evenodd" clip-rule="evenodd" d="M138 113C122.536 113 110 125.536 110 141V221C110 236.464 122.536 249 138 249H218C233.464 249 246 236.464 246 221V141C246 125.536 233.464 113 218 113H138ZM141 133C134.925 133 130 137.925 130 144V218C130 224.075 134.925 229 141 229H215C221.075 229 226 224.075 226 218V144C226 137.925 221.075 133 215 133H141Z" fill="white"/>
<path fill-rule="evenodd" clip-rule="evenodd" d="M138 269C122.536 269 110 281.536 110 297V377C110 392.464 122.536 405 138 405H218C233.464 405 246 392.464 246 377V297C246 281.536 233.464 269 218 269H138ZM141 289C134.925 289 130 293.925 130 300V374C130 380.075 134.925 385 141 385H215C221.075 385 226 380.075 226 374V300C226 293.925 221.075 289 215 289H141Z" fill="white"/>
<path fill-rule="evenodd" clip-rule="evenodd" d="M354.34 110.299C343.405 99.3643 325.676 99.3643 314.742 110.299L269.487 155.554C258.552 166.489 258.552 184.217 269.487 195.152L314.742 240.407C325.676 251.341 343.405 251.341 354.34 240.407L399.594 195.152C410.529 184.217 410.529 166.489 399.594 155.554L354.34 110.299ZM342.319 126.278C338.023 121.982 331.058 121.982 326.762 126.278L285.75 167.29C281.454 171.586 281.454 178.551 285.75 182.847L326.762 223.859C331.058 228.155 338.023 228.155 342.319 223.859L383.331 182.847C387.627 178.551 387.627 171.586 383.331 167.29L342.319 126.278Z" fill="white"/>
<path fill-rule="evenodd" clip-rule="evenodd" d="M294 269C278.536 269 266 281.536 266 297V377C266 392.464 278.536 405 294 405H374C389.464 405 402 392.464 402 377V297C402 281.536 389.464 269 374 269H294ZM297 289C290.925 289 286 293.925 286 300V374C286 380.075 290.925 385 297 385H371C377.075 385 382 380.075 382 374V300C382 293.925 377.075 289 371 289H297Z" fill="white"/>
</g>
<defs>
<clipPath id="clip0_16_44">
<rect width="512" height="512" fill="white"/>
</clipPath>
</defs>
</svg>
